<?xml version="1.0" standalone="no"?>
<!DOCTYPE svg PUBLIC "-//W3C//DTD SVG 20010904//EN"
 "http://www.w3.org/TR/2001/REC-SVG-20010904/DTD/svg10.dtd">
<svg version="1.0" xmlns="http://www.w3.org/2000/svg"
 width="104.000000pt" height="120.000000pt" viewBox="0 0 104.000000 120.000000"
 preserveAspectRatio="xMidYMid meet">

<g transform="translate(0.000000,120.000000) scale(0.100000,-0.100000)"
fill="#FF0000" stroke="none">
<path d="M130 966 l0 -146 268 0 267 -1 128 -151 128 -152 -3 190 c-3 164 -6
194 -23 229 -28 56 -83 108 -151 141 l-59 29 -277 3 -278 3 0 -145z"/>
<path d="M130 635 l0 -146 83 3 82 3 3 143 3 142 -86 0 -85 0 0 -145z"/>
<path d="M660 612 l0 -162 -265 0 -265 0 0 -145 0 -145 243 0 c272 0 324 8
415 63 83 50 132 127 132 207 0 37 -9 52 -117 178 -64 75 -122 144 -130 152
-11 12 -13 -12 -13 -148z"/>
</g>
</svg>
